<?xml version="1.0" encoding="UTF-8" standalone="no"?>
<!-- Created with Inkscape (http://www.inkscape.org/) -->

<svg
   xmlns:dc="http://purl.org/dc/elements/1.1/"
   xmlns:cc="http://creativecommons.org/ns#"
   xmlns:rdf="http://www.w3.org/1999/02/22-rdf-syntax-ns#"
   xmlns:svg="http://www.w3.org/2000/svg"
   xmlns="http://www.w3.org/2000/svg"
   xmlns:sodipodi="http://sodipodi.sourceforge.net/DTD/sodipodi-0.dtd"
   xmlns:inkscape="http://www.inkscape.org/namespaces/inkscape"
   width="744.09448819"
   height="1052.3622047"
   id="svg5321"
   version="1.1"
   inkscape:version="0.48.4 r9939"
   sodipodi:docname="New document 9">
  <defs
     id="defs5323" />
  <sodipodi:namedview
     id="base"
     pagecolor="#ffffff"
     bordercolor="#666666"
     borderopacity="1.0"
     inkscape:pageopacity="0.0"
     inkscape:pageshadow="2"
     inkscape:zoom="1.7737896"
     inkscape:cx="474.41843"
     inkscape:cy="577.45131"
     inkscape:document-units="px"
     inkscape:current-layer="layer1"
     showgrid="false"
     showborder="false"
     inkscape:window-width="958"
     inkscape:window-height="1182"
     inkscape:window-x="0"
     inkscape:window-y="16"
     inkscape:window-maximized="1" />
  <metadata
     id="metadata5326">
    <rdf:RDF>
      <cc:Work
         rdf:about="">
        <dc:format>image/svg+xml</dc:format>
        <dc:type
           rdf:resource="http://purl.org/dc/dcmitype/StillImage" />
        <dc:title></dc:title>
      </cc:Work>
    </rdf:RDF>
  </metadata>
  <g
     inkscape:label="Layer 1"
     inkscape:groupmode="layer"
     id="layer1">
    <g
       transform="translate(988.08616,623.6483)"
       id="g5299">
      <rect
         y="-235.02652"
         x="-533.82562"
         height="35"
         width="35"
         id="rect5239"
         style="fill:#000000;fill-opacity:0;fill-rule:nonzero;stroke:none" />
      <g
         transform="translate(63.384227,-2.7885409)"
         id="g5819">
        <path
           transform="matrix(0.18402886,0,0,0.17680226,-371.92936,-152.42846)"
           d="m -1096.5661,-418.46213 c 0,17.94849 -14.5501,32.49861 -32.4986,32.49861 -17.9485,0 -32.4986,-14.55012 -32.4986,-32.49861 0,-17.94849 14.5501,-32.49861 32.4986,-32.49861 17.9485,0 32.4986,14.55012 32.4986,32.49861 z"
           sodipodi:ry="32.498611"
           sodipodi:rx="32.498611"
           sodipodi:cy="-418.46213"
           sodipodi:cx="-1129.0647"
           id="path3744"
           style="fill:#4d4d4d;fill-opacity:1;fill-rule:nonzero;stroke:none"
           sodipodi:type="arc" />
        <path
           sodipodi:nodetypes="ccssc"
           inkscape:connector-curvature="0"
           id="path3746"
           d="m -568.90074,-197.31666 c 0,0 -21.69557,0 -21.64349,0 0,-4.63425 1.99902,-22.12189 7.97572,-22.12189 0.24515,0 5.63184,0.0861 5.87863,0.0861 5.71182,0 8.0903,15.50748 7.78914,22.03583 z"
           style="fill:#4d4d4d;fill-opacity:1;fill-rule:nonzero;stroke:none" />
      </g>
    </g>
    <g
       transform="translate(988.08616,623.6483)"
       id="g4652">
      <rect
         y="-287.75278"
         x="-533.36871"
         height="34.874992"
         width="34.875"
         id="rect5084"
         style="fill:#ffffff;fill-opacity:0;fill-rule:nonzero;stroke:#ffffff;stroke-width:0.1;stroke-linecap:square;stroke-linejoin:miter;stroke-miterlimit:4;stroke-opacity:1;stroke-dasharray:none;stroke-dashoffset:126.1600029" />
      <g
         transform="translate(111.26532,-41.966107)"
         id="g5928">
        <path
           transform="matrix(0.14121586,0,0,0.14121586,-464.33923,-178.91363)"
           d="m -1096.5661,-418.46213 c 0,17.94849 -14.5501,32.49861 -32.4986,32.49861 -17.9485,0 -32.4986,-14.55012 -32.4986,-32.49861 0,-17.94849 14.5501,-32.49861 32.4986,-32.49861 17.9485,0 32.4986,14.55012 32.4986,32.49861 z"
           sodipodi:ry="32.498611"
           sodipodi:rx="32.498611"
           sodipodi:cy="-418.46213"
           sodipodi:cx="-1129.0647"
           id="path5833"
           style="fill:#4d4d4d;fill-opacity:1;fill-rule:nonzero;stroke:none"
           sodipodi:type="arc" />
        <path
           sodipodi:nodetypes="ccssc"
           inkscape:connector-curvature="0"
           id="path5835"
           d="m -617.31364,-214.102 c 0,0 -12.98113,0 -12.94998,0 0,-3.76383 1.19608,-17.96688 4.77213,-17.96688 0.14668,0 3.36972,0.07 3.51737,0.07 3.41756,0 4.84067,12.5948 4.66048,17.89697 z"
           style="fill:#4d4d4d;fill-opacity:1;fill-rule:nonzero;stroke:none" />
        <path
           id="path5839"
           d="m -615.68428,-240.50389 c -0.69986,0 -1.34484,0.19521 -1.92382,0.50019 0.31547,0.62242 0.50019,1.33218 0.50019,2.07772 0,1.60299 -0.79394,3.02692 -2.03924,3.84764 0.74156,1.14863 1.99397,1.92382 3.46287,1.92382 2.30034,0 4.19393,-1.85511 4.19393,-4.15545 0,-2.30033 -1.89359,-4.19392 -4.19393,-4.19392 z"
           style="fill:#4d4d4d;fill-opacity:1;fill-rule:nonzero;stroke:none"
           inkscape:connector-curvature="0" />
        <path
           id="path5841"
           d="m -617.22333,-230.31302 c -0.22034,0 -0.41487,0.0748 -0.61563,0.16838 1.59169,2.98173 2.44166,9.14722 2.6164,13.53396 l 5.42517,0 c 0.16355,-4.03485 -1.13073,-13.64626 -4.2324,-13.64626 -0.13401,0 -3.06042,-0.0561 -3.19354,-0.0561 z"
           style="fill:#4d4d4d;fill-opacity:1;fill-rule:nonzero;stroke:none"
           inkscape:connector-curvature="0" />
        <path
           inkscape:connector-curvature="0"
           style="fill:#4d4d4d;fill-opacity:1;fill-rule:nonzero;stroke:none"
           d="m -631.87791,-240.50389 c 0.69986,0 1.34484,0.19521 1.92382,0.50019 -0.31547,0.62242 -0.50019,1.33218 -0.50019,2.07772 0,1.60299 0.79394,3.02692 2.03924,3.84764 -0.74156,1.14863 -1.99397,1.92382 -3.46287,1.92382 -2.30034,0 -4.19393,-1.85511 -4.19393,-4.15545 0,-2.30033 1.89359,-4.19392 4.19393,-4.19392 z"
           id="path5845" />
        <path
           inkscape:connector-curvature="0"
           style="fill:#4d4d4d;fill-opacity:1;fill-rule:nonzero;stroke:none"
           d="m -630.33886,-230.31302 c 0.22034,0 0.41487,0.0748 0.61563,0.16838 -1.59169,2.98173 -2.44166,9.14722 -2.6164,13.53396 l -5.42517,0 c -0.16355,-4.03485 1.13073,-13.64626 4.2324,-13.64626 0.13401,0 3.06042,-0.0561 3.19354,-0.0561 z"
           id="path5847" />
        <path
           id="path5851"
           d="m -639.54502,-237.91375 c 0.60067,0 1.15424,0.16755 1.65117,0.4293 -0.27076,0.53421 -0.42931,1.14339 -0.42931,1.78327 0,1.3758 0.68143,2.59793 1.75024,3.30234 -0.63647,0.98584 -1.71138,1.65117 -2.9721,1.65117 -1.97433,0 -3.59956,-1.5922 -3.59956,-3.56653 0,-1.97432 1.62523,-3.59955 3.59956,-3.59955 z"
           style="fill:#4d4d4d;fill-opacity:1;fill-rule:nonzero;stroke:none"
           inkscape:connector-curvature="0" />
        <path
           id="path5853"
           d="m -638.22409,-228.37111 c 0.18911,0 0.35607,0.0477 0.52838,0.10756 -1.36612,1.90408 -2.09562,5.84127 -2.2456,8.64261 l -4.6563,0 c -0.14037,-2.57662 0.97048,-8.71436 3.63258,-8.71436 0.11501,0 2.62669,-0.0359 2.74094,-0.0359 z"
           style="fill:#4d4d4d;fill-opacity:1;fill-rule:nonzero;stroke:none"
           inkscape:connector-curvature="0" />
      </g>
    </g>
    <g
       transform="translate(988.08616,623.6483)"
       id="g4892">
      <rect
         y="-340.60406"
         x="-533.36279"
         height="35"
         width="35"
         id="rect3686"
         style="fill:none;stroke:none" />
      <g
         id="g4868">
        <g
           id="g4844">
          <rect
             style="fill:#4d4d4d;fill-opacity:1;fill-rule:nonzero;stroke:none"
             id="rect4702"
             width="19.594065"
             height="34.30027"
             x="-532.74109"
             y="-340.00357" />
          <rect
             style="fill:#ffffff;fill-opacity:1;fill-rule:nonzero;stroke:none"
             id="rect4704"
             width="4"
             height="3.5"
             x="-530.84259"
             y="-338.60803"
             ry="0.25"
             rx="0.25" />
          <rect
             rx="0.25"
             ry="0.25"
             y="-338.60803"
             x="-524.94409"
             height="3.5"
             width="4"
             id="rect4706"
             style="fill:#ffffff;fill-opacity:1;fill-rule:nonzero;stroke:none" />
          <rect
             rx="0.25"
             ry="0.25"
             y="-332.92151"
             x="-530.84259"
             height="3.5"
             width="4"
             id="rect4708"
             style="fill:#ffffff;fill-opacity:1;fill-rule:nonzero;stroke:none" />
          <rect
             style="fill:#ffffff;fill-opacity:1;fill-rule:nonzero;stroke:none"
             id="rect4710"
             width="4"
             height="3.5"
             x="-524.94409"
             y="-332.92151"
             ry="0.25"
             rx="0.25" />
          <rect
             rx="0.25"
             ry="0.25"
             y="-332.92151"
             x="-519.04559"
             height="3.5"
             width="4"
             id="rect4712"
             style="fill:#ffffff;fill-opacity:1;fill-rule:nonzero;stroke:none" />
          <rect
             rx="0.25"
             ry="0.25"
             y="-327.23499"
             x="-530.84259"
             height="3.5"
             width="4"
             id="rect4714"
             style="fill:#ffffff;fill-opacity:1;fill-rule:nonzero;stroke:none" />
          <rect
             rx="0.25"
             ry="0.25"
             y="-327.23499"
             x="-519.04559"
             height="3.5"
             width="4"
             id="rect4716"
             style="fill:#ffffff;fill-opacity:1;fill-rule:nonzero;stroke:none" />
          <rect
             style="fill:#ffffff;fill-opacity:1;fill-rule:nonzero;stroke:none"
             id="rect4718"
             width="4"
             height="3.5"
             x="-530.84259"
             y="-321.54846"
             ry="0.25"
             rx="0.25" />
          <rect
             rx="0.25"
             ry="0.25"
             y="-321.54846"
             x="-524.94409"
             height="3.5"
             width="4"
             id="rect4720"
             style="fill:#ffffff;fill-opacity:1;fill-rule:nonzero;stroke:none" />
          <rect
             style="fill:#ffffff;fill-opacity:1;fill-rule:nonzero;stroke:none"
             id="rect4722"
             width="4"
             height="3.5"
             x="-519.04559"
             y="-321.54846"
             ry="0.25"
             rx="0.25" />
          <rect
             style="fill:#4d4d4d;fill-opacity:1;fill-rule:nonzero;stroke:none"
             id="rect4724"
             width="15.958"
             height="0.55900002"
             x="-530.92303"
             y="-340.50482" />
          <rect
             rx="0.25"
             ry="0.25"
             y="-315.88159"
             x="-526.565"
             height="8.955267"
             width="7.2418785"
             id="rect4726"
             style="fill:#ffffff;fill-opacity:1;fill-rule:nonzero;stroke:none" />
        </g>
        <g
           id="g4859">
          <rect
             y="-332.75357"
             x="-512.67859"
             height="27.05027"
             width="13.694143"
             id="rect4728"
             style="fill:#4d4d4d;fill-opacity:1;fill-rule:nonzero;stroke:none" />
          <rect
             rx="0.25"
             ry="0.25"
             y="-331.72516"
             x="-510.78012"
             height="4"
             width="4"
             id="rect4730"
             style="fill:#ffffff;fill-opacity:1;fill-rule:nonzero;stroke:none" />
          <rect
             style="fill:#ffffff;fill-opacity:1;fill-rule:nonzero;stroke:none"
             id="rect4732"
             width="4"
             height="4"
             x="-504.88162"
             y="-331.72516"
             ry="0.25"
             rx="0.25" />
          <rect
             rx="0.25"
             ry="0.25"
             y="-325.22858"
             x="-504.88162"
             height="4"
             width="4"
             id="rect4734"
             style="fill:#ffffff;fill-opacity:1;fill-rule:nonzero;stroke:none" />
          <rect
             style="fill:#ffffff;fill-opacity:1;fill-rule:nonzero;stroke:none"
             id="rect4736"
             width="4"
             height="4"
             x="-510.78012"
             y="-318.73199"
             ry="0.25"
             rx="0.25" />
          <rect
             rx="0.25"
             ry="0.25"
             y="-318.73199"
             x="-504.88162"
             height="4"
             width="4"
             id="rect4738"
             style="fill:#ffffff;fill-opacity:1;fill-rule:nonzero;stroke:none" />
          <rect
             rx="0.25"
             ry="0.25"
             y="-312.23541"
             x="-510.78012"
             height="4"
             width="4"
             id="rect4740"
             style="fill:#ffffff;fill-opacity:1;fill-rule:nonzero;stroke:none" />
        </g>
      </g>
      <rect
         y="-340.54156"
         x="-533.30029"
         height="34.874992"
         width="34.875"
         id="rect4742"
         style="fill:#ffffff;fill-opacity:0;fill-rule:nonzero;stroke:#ffffff;stroke-width:0.1;stroke-linecap:square;stroke-linejoin:miter;stroke-miterlimit:4;stroke-opacity:1;stroke-dasharray:none;stroke-dashoffset:126.1600029" />
    </g>
    <g
       transform="translate(988.08616,623.6483)"
       id="g5305">
      <rect
         style="fill:none;stroke:none"
         id="rect5297"
         width="35"
         height="35"
         x="-533.82562"
         y="-170.02652" />
      <g
         transform="translate(-2.8714244,0.34563985)"
         id="g5273">
        <path
           style="fill:#4d4d4d;fill-opacity:1;stroke:#4d4d4d;stroke-width:1;stroke-linecap:square;stroke-linejoin:miter;stroke-miterlimit:4;stroke-opacity:1;stroke-dasharray:none"
           d="m -521.80588,-162.34237 0,21.6186"
           id="path4983"
           inkscape:connector-curvature="0" />
        <path
           style="fill:#4d4d4d;fill-opacity:1;stroke:#4d4d4d;stroke-width:1;stroke-linecap:square;stroke-linejoin:miter;stroke-miterlimit:4;stroke-opacity:1;stroke-dasharray:none"
           d="m -521.80588,-157.38477 7.02434,0"
           id="path4973"
           inkscape:connector-curvature="0" />
        <text
           xml:space="preserve"
           style="font-size:9.92462444px;font-style:normal;font-variant:normal;font-weight:bold;font-stretch:normal;text-align:start;line-height:125%;letter-spacing:0px;word-spacing:0px;writing-mode:lr-tb;text-anchor:start;fill:#4d4d4d;fill-opacity:1;stroke:none;font-family:Arial Black;-inkscape-font-specification:'Arial Black, Bold'"
           x="-458.3252"
           y="-174.68193"
           id="text4985"
           sodipodi:linespacing="125%"
           transform="scale(1.1178946,0.89453872)"><tspan
             sodipodi:role="line"
             id="tspan4987"
             x="-458.3252"
             y="-174.68193">#1</tspan></text>
        <path
           style="fill:#4d4d4d;fill-opacity:1;stroke:#4d4d4d;stroke-width:1;stroke-linecap:square;stroke-linejoin:miter;stroke-miterlimit:4;stroke-opacity:1;stroke-dasharray:none"
           d="m -521.80588,-149.05518 7,0"
           id="path4971"
           inkscape:connector-curvature="0" />
        <text
           transform="scale(1.1178946,0.89453872)"
           sodipodi:linespacing="125%"
           id="text5121"
           y="-163.35774"
           x="-458.36121"
           style="font-size:9.0997858px;font-style:normal;font-variant:normal;font-weight:bold;font-stretch:normal;text-align:start;line-height:125%;letter-spacing:0px;word-spacing:0px;writing-mode:lr-tb;text-anchor:start;fill:#4d4d4d;fill-opacity:1;stroke:none;font-family:Arial Black;-inkscape-font-specification:'Arial Black, Bold'"
           xml:space="preserve"><tspan
             y="-163.35774"
             x="-458.36121"
             id="tspan5123"
             sodipodi:role="line">#2</tspan></text>
        <path
           style="fill:#4d4d4d;fill-opacity:1;stroke:#4d4d4d;stroke-width:1;stroke-linecap:square;stroke-linejoin:miter;stroke-miterlimit:4;stroke-opacity:1;stroke-dasharray:none"
           d="m -521.80588,-140.72559 6.99768,0"
           id="path4969"
           inkscape:connector-curvature="0" />
        <text
           xml:space="preserve"
           style="font-size:9.89122009px;font-style:normal;font-variant:normal;font-weight:bold;font-stretch:normal;text-align:start;line-height:125%;letter-spacing:0px;word-spacing:0px;writing-mode:lr-tb;text-anchor:start;fill:#4d4d4d;fill-opacity:1;stroke:none;font-family:Arial Black;-inkscape-font-specification:'Arial Black, Bold'"
           x="-458.60843"
           y="-151.46471"
           id="text5127"
           sodipodi:linespacing="125%"
           transform="scale(1.1178946,0.89453872)"><tspan
             sodipodi:role="line"
             id="tspan5129"
             x="-458.60843"
             y="-151.46471">#3</tspan></text>
        <text
           xml:space="preserve"
           style="font-size:12.81300449px;font-style:normal;font-variant:normal;font-weight:bold;font-stretch:normal;text-align:start;line-height:125%;letter-spacing:0px;word-spacing:0px;writing-mode:lr-tb;text-anchor:start;fill:#4d4d4d;fill-opacity:1;stroke:none;font-family:Arial Black;-inkscape-font-specification:'Arial Black, Bold'"
           x="-528.91583"
           y="-161.03307"
           id="text5233"
           sodipodi:linespacing="125%"><tspan
             sodipodi:role="line"
             id="tspan5235"
             x="-528.91583"
             y="-161.03307">?</tspan></text>
      </g>
    </g>
  </g>
</svg>
